<svg width="120" height="48" viewBox="0 0 120 48" fill="none" xmlns="http://www.w3.org/2000/svg">
<path d="M37.0668 25.1141L28.6957 15.4746L24.1296 27.2702L31.9934 36.2755L20.5782 36.4023L16.5195 47.3101H28.442L37.0668 25.1141Z" fill="white"/>
<path d="M0.03125 47.4367L18.2955 0.000488281L30.2179 0.000488281L11.8269 47.4367H0.03125Z" fill="white"/>
<path d="M55.8773 24.3537C58.0487 24.3537 59.7127 25.1857 60.8695 26.8498C62.0465 28.4935 62.4524 30.4214 62.0871 32.6334C61.7421 34.7846 60.7985 36.6211 59.2561 38.1431C57.7138 39.6652 55.8164 40.4262 53.5638 40.4262C51.3721 40.4262 49.7892 39.5941 48.8151 37.9301L48.4498 40H44.523L48.2672 18.6918H52.194L50.8242 26.4236C52.2041 25.0436 53.8885 24.3537 55.8773 24.3537ZM58.1603 32.3595C58.3835 31.081 58.1704 30.0562 57.521 29.285C56.8919 28.4935 55.9686 28.0978 54.751 28.0978C53.5334 28.0978 52.4578 28.4935 51.5243 29.285C50.5908 30.0764 50.0124 31.1114 49.7892 32.3899C49.566 33.6684 49.7892 34.7034 50.4589 35.4948C51.1286 36.2863 52.0722 36.682 53.2898 36.682C54.5074 36.682 55.5729 36.2863 56.4861 35.4948C57.3993 34.6831 57.9574 33.638 58.1603 32.3595ZM74.7191 24.7798H78.6459L75.9672 40H72.0404L72.3448 38.3562C71.1475 39.7362 69.5747 40.4262 67.6265 40.4262C65.9219 40.4262 64.6028 39.8579 63.6693 38.7215C62.7358 37.5851 62.4415 36.0529 62.7865 34.125L64.4303 24.7798H68.3571L66.8046 33.638C66.622 34.6729 66.7539 35.4542 67.2004 35.9819C67.6671 36.5095 68.3571 36.7733 69.2703 36.7733C70.2038 36.7733 71.0155 36.4994 71.7055 35.9514C72.4158 35.4035 72.913 34.5816 73.1971 33.4858L74.7191 24.7798ZM85.5923 40.4262C83.2382 40.4262 81.3915 39.6246 80.0521 38.0214C78.7331 36.3979 78.2663 34.4193 78.6519 32.0855C78.9969 29.8532 80.0217 28.0065 81.7264 26.5454C83.4513 25.0842 85.4604 24.3537 87.7535 24.3537C89.3161 24.3537 90.6555 24.7189 91.7717 25.4495C92.8878 26.1598 93.6894 27.1136 94.1765 28.3109L90.6149 30.1982C90.067 28.8791 89.0016 28.2196 87.4187 28.2196C86.2417 28.2196 85.1864 28.6052 84.2529 29.3763C83.3397 30.1272 82.7816 31.1013 82.5787 32.2986C82.3757 33.5162 82.5888 34.5309 83.2179 35.3426C83.847 36.1341 84.7501 36.5298 85.9271 36.5298C87.51 36.5298 88.7682 35.85 89.7017 34.4903L92.8675 36.5298C92.0964 37.788 91.0614 38.7519 89.7626 39.4216C88.4841 40.0913 87.094 40.4262 85.5923 40.4262ZM92.7527 40L94.4269 30.4417L96.649 17.7785H100.576L98.3232 30.5939L96.6795 40H92.7527ZM114.641 18.57L110.653 22.7403H106.787L109.831 18.57H114.641ZM102.465 26.5758C104.19 25.0944 106.178 24.3537 108.431 24.3537C110.683 24.3537 112.459 25.135 113.758 26.6976C115.057 28.2399 115.493 30.1373 115.067 32.3899C115.026 32.8364 114.884 33.3742 114.641 34.0033H103.134C103.215 34.9773 103.591 35.6978 104.261 36.1645C104.93 36.6313 105.772 36.8646 106.787 36.8646C108.309 36.8646 109.557 36.3472 110.531 35.3122L113.301 37.5343C111.597 39.4622 109.324 40.4262 106.483 40.4262C103.966 40.4262 102.049 39.6246 100.729 38.0214C99.4307 36.4182 98.9741 34.4396 99.3596 32.0855C99.7046 29.8735 100.74 28.0369 102.465 26.5758ZM103.682 30.9288H111.414C111.394 29.8938 111.079 29.1328 110.47 28.6457C109.882 28.1384 109.121 27.8847 108.187 27.8847C107.173 27.8847 106.27 28.1486 105.478 28.6762C104.707 29.2038 104.108 29.9547 103.682 30.9288Z" fill="white"/>
</svg>
