<svg width="1074" height="420" viewBox="0 0 1074 420" fill="none" xmlns="http://www.w3.org/2000/svg">
<mask id="path-1-inside-1_2070_11252" fill="white">
<path d="M5.10938 13.4473H218.523V402.689H5.10938V13.4473Z"/>
</mask>
<path d="M217.58 13.4473V402.689H219.465V13.4473H217.58Z" fill="white" fill-opacity="0.3" mask="url(#path-1-inside-1_2070_11252)"/>
<mask id="path-3-inside-2_2070_11252" fill="white">
<path d="M645.653 13.1343H859.067V402.376H645.653V13.1343Z"/>
</mask>
<path d="M858.124 13.1343V402.376H860.009V13.1343H858.124Z" fill="white" fill-opacity="0.3" mask="url(#path-3-inside-2_2070_11252)"/>
<mask id="path-5-inside-3_2070_11252" fill="white">
<path d="M432.24 13.1343H645.653V402.376H432.24V13.1343Z"/>
</mask>
<path d="M644.711 13.1343V402.376H646.595V13.1343H644.711Z" fill="white" fill-opacity="0.3" mask="url(#path-5-inside-3_2070_11252)"/>
<mask id="path-7-inside-4_2070_11252" fill="white">
<path d="M0 13H5V402H0V13Z"/>
</mask>
<path d="M4.05778 13V402H5.94222V13H4.05778Z" fill="white" fill-opacity="0.3" mask="url(#path-7-inside-4_2070_11252)"/>
<mask id="path-9-inside-5_2070_11252" fill="white">
<path d="M218.826 13.1343H432.239V402.376H218.826V13.1343Z"/>
</mask>
<path d="M431.297 13.1343V402.376H433.182V13.1343H431.297Z" fill="white" fill-opacity="0.3" mask="url(#path-9-inside-5_2070_11252)"/>
<mask id="path-11-inside-6_2070_11252" fill="white">
<path d="M859.066 13.1343H1072.48V402.376H859.066V13.1343Z"/>
</mask>
<path d="M1071.54 13.1343V402.376H1073.42V13.1343H1071.54Z" fill="white" fill-opacity="0.3" mask="url(#path-11-inside-6_2070_11252)"/>
<g clip-path="url(#clip0_2070_11252)">
<path d="M188.675 0.717285H35.5642C18.9122 0.717285 5.41309 14.2164 5.41309 30.8684C5.41309 47.5204 18.9122 61.0195 35.5642 61.0195H188.675C205.327 61.0195 218.826 47.5204 218.826 30.8684C218.826 14.2164 205.327 0.717285 188.675 0.717285Z" fill="#8955DD"/>
<path d="M402.089 72.3262H142.271C125.619 72.3262 112.12 85.8253 112.12 102.477C112.12 119.129 125.619 132.628 142.271 132.628H402.089C418.741 132.628 432.24 119.129 432.24 102.477C432.24 85.8253 418.741 72.3262 402.089 72.3262Z" fill="#3AF8EF"/>
<path d="M828.915 143.936H462.39C445.738 143.936 432.239 157.435 432.239 174.087C432.239 190.739 445.738 204.238 462.39 204.238H828.915C845.567 204.238 859.066 190.739 859.066 174.087C859.066 157.435 845.567 143.936 828.915 143.936Z" fill="#5B24B2"/>
<path d="M1042.33 215.543H569.097C552.445 215.543 538.946 229.043 538.946 245.695C538.946 262.347 552.445 275.846 569.097 275.846H1042.33C1058.98 275.846 1072.48 262.347 1072.48 245.695C1072.48 229.043 1058.98 215.543 1042.33 215.543Z" fill="#FC7836"/>
<path d="M828.915 287.152H675.804C659.152 287.152 645.653 300.651 645.653 317.303C645.653 333.955 659.152 347.455 675.804 347.455H828.915C845.567 347.455 859.066 333.955 859.066 317.303C859.066 300.651 845.567 287.152 828.915 287.152Z" fill="#FEBB9A"/>
<path d="M1042.33 358.762H675.804C659.152 358.762 645.653 372.261 645.653 388.913C645.653 405.565 659.152 419.064 675.804 419.064H1042.33C1058.98 419.064 1072.48 405.565 1072.48 388.913C1072.48 372.261 1058.98 358.762 1042.33 358.762Z" fill="#9CFCF7"/>
</g>
<defs>
<clipPath id="clip0_2070_11252">
<rect width="1068" height="419" fill="white" transform="translate(5.10938 0.688477)"/>
</clipPath>
</defs>
</svg>
